<svg height="54.05" width="72.067" xmlns="http://www.w3.org/2000/svg"><path d="m346.16487 315.85029c-4.43614 0-8.00748 3.5714-8.00748 8.0075v38.0355c0 4.4362 3.57134 8.0075 8.00748 8.0075h56.05234c4.43614 0 8.00748-3.5713 8.00748-8.0075v-38.0355c0-4.4361-3.57134-8.0075-8.00748-8.0075zm0 4.0038h56.05234c2.21807 0 4.00374 1.7856 4.00374 4.0037v38.0355c0 2.2181-1.78567 4.0038-4.00374 4.0038h-56.05234c-2.21807 0-4.00374-1.7857-4.00374-4.0038v-38.0355c0-2.2181 1.78567-4.0037 4.00374-4.0037zm0 4.0037v38.0355h12.01121v-38.0355zm16.01495 0v10.0094h40.03739v-10.0094zm5.00468 2.0019c1.65841 0 3.0028 1.3444 3.0028 3.0028s-1.34439 3.0028-3.0028 3.0028-3.00281-1.3444-3.00281-3.0028 1.3444-3.0028 3.00281-3.0028zm10.0719 0c1.65841 0 3.00281 1.3444 3.00281 3.0028s-1.3444 3.0028-3.00281 3.0028-3.0028-1.3444-3.0028-3.0028 1.34439-3.0028 3.0028-3.0028zm10.00935 0c1.65841 0 3.0028 1.3444 3.0028 3.0028s-1.34439 3.0028-3.0028 3.0028-3.00281-1.3444-3.00281-3.0028 1.3444-3.0028 3.00281-3.0028zm10.00935 0c1.6584 0 3.0028 1.3444 3.0028 3.0028s-1.3444 3.0028-3.0028 3.0028c-1.65841 0-3.00281-1.3444-3.00281-3.0028s1.3444-3.0028 3.00281-3.0028zm-35.09528 12.0112v24.0224h4.00374v-14.0131h2.00187v14.0131h4.00374v-20.0187h2.00187v20.0187h4.00374v-6.0056h2.00187v6.0056h4.00374v-14.0131h2.00187v14.0131h4.00373v-12.0112h2.00187v12.0112h4.00374v-18.0168h2.00187v18.0168h4.00374v-24.0224z" fill="#00bcf2" transform="translate(-338.157 -315.85)"/></svg>