<svg height="70" width="67.485" xmlns="http://www.w3.org/2000/svg"><path d="m-198.16589 536.64138c-3.17264-.83123-5.72847-3.33808-6.6453-6.51797l-.31664-1.0982v-27.04305c0-22.20209.0331-27.17821.18483-27.79807.10166-.41525.46444-1.34186.80619-2.05911.53117-1.11484.79324-1.47372 1.80565-2.47272 1.3546-1.33668 2.55993-2.0244 4.32924-2.47015 1.06307-.26783 1.55942-.27346 23.67983-.26872l22.594.005 7.04281 6.96184 7.04279 6.96183-.0418 24.22894-.0418 24.22893-.32451.96092c-1.11815 3.31113-3.48789 5.56775-6.71306 6.39261-1.0071.25758-1.7749.26498-26.71957.25764-24.81831-.007-25.71633-.0164-26.68265-.26955zm41.97638-22.37316v-2.88277h-15.58064-15.58065v2.88277 2.88276h15.58065 15.58064zm0-10.98196v-2.88276h-15.58064-15.58065v2.88276 2.88277h15.58065 15.58064zm0-11.11922v-2.88276h-15.58064-15.58065v2.88276 2.88276h15.58065 15.58064zm8.3051-14.82564c-3.69897-3.69954-6.74106-6.72644-6.76023-6.72644-.0192 0-.0349 3.0269-.0349 6.72644v6.72645h6.76024 6.76024l-6.7254-6.72645z" fill="#00bcf2" transform="translate(205.128 -466.913)"/></svg>