<svg height="70.001" width="54.63" xmlns="http://www.w3.org/2000/svg"><path d="m-66.726751 539.23619c-1.37797-.11912-4.648774-.6365-5.898894-.93308-2.86988-.68087-5.63116-1.90134-7.29621-3.22489-1.03545-.82307-2.13663-2.26811-2.59143-3.40061-.19476-.48497-.40674-1.40692-.48934-2.12822-.0991-.86511-.13255-9.20828-.10456-26.05608l.0412-24.7835.49337-1.03304c1.91054-4.00038 8.44975-6.93642 17.905474-8.03939 2.46123-.28709 8.56892-.40504 11.13662-.21506 7.8329.57953 14.26894 2.38783 18.49521 5.19649 1.20632.80168 2.65984 2.22169 3.15587 3.08312.76128 1.32205.75017 1.09176.67624 14.0175-.0375 6.55115-.10595 11.90758-.15217 11.90318-.0462-.004-2.09211-1.88564-4.54644-4.18053l-4.4624-4.17252-12.25444-.007-12.25445-.007v22.03741 22.0374l-.6522-.0231c-.35871-.0126-.89934-.0444-1.20141-.0706zm12.70068-54.82938c6.76392-.40603 11.65908-1.66997 13.75786-3.55231.8413-.75454 1.07105-1.19612 1.07105-2.05855 0-.55861-.0817-.79065-.44941-1.27689-1.49361-1.97485-5.66146-3.4009-12.04532-4.12136-2.41525-.27257-10.10239-.22586-12.70068.0772-4.19539.48932-7.289054 1.17007-9.542684 2.09983-1.43374.5915-1.976.90673-2.65443 1.54308-1.96705 1.84503-.78853 3.70799 3.29914 5.21517 2.4346.89766 6.327334 1.64028 10.133714 1.93322 3.87287.29805 5.97007.33035 9.13076.14062zm-8.23828 34.19001v-20.73301h9.92685 9.92686l6.9273 5.80975 6.9273 5.80976.0349 14.92325.0349 14.92326h-16.88909-16.88909v-20.73301zm31.03086 5.21758v-12.90664h-5.14892-5.14893v-5.21758-5.21758h-9.06211-9.06211v18.12422 18.12422h14.21104 14.21103zm-24.02832 2.95205v-1.30439h3.98184 3.98183v1.30439 1.3044h-3.98183-3.98184zm10.43516 0v-1.30439h3.91318 3.91319v1.30439 1.3044h-3.91319-3.91318zm-10.37592-3.95683c-.0391-.10189-.053-.70528-.0308-1.34088l.0403-1.15561 3.95251-.0364 3.95251-.0364-.0393 1.34084-.0393 1.34083-3.88234.0365c-3.15677.0297-3.89563.002-3.95344-.14877zm10.46746.0894c-.0504-.0503-.0915-.66822-.0915-1.37305v-1.28152h3.91318 3.91319v1.37305 1.37304h-3.82165c-2.10191 0-3.86284-.0412-3.91318-.0915zm-10.46828-5.30917c-.0386-.10069-.0521-.70312-.03-1.33872l.0403-1.15561 3.94751-.0364 3.94751-.0364v1.37515 1.37514h-3.91749c-3.13829 0-3.93147-.0364-3.98776-.18311zm10.37674-1.18993v-1.37305h3.91318 3.91319v1.37305 1.37304h-3.91319-3.91318zm-10.37674-4.02764c-.0386-.10071-.0521-.70313-.03-1.33872l.0403-1.15561h3.91319 3.91318l.0393 1.33872.0393 1.33872h-3.92247c-3.14243 0-3.93644-.0364-3.99273-.18311zm-.0584-6.33886v-1.3044h3.98184 3.98183v1.3044 1.30439h-3.98183-3.98184z" fill="#00bcf2" transform="translate(83.117 -469.33)"/></svg>