<svg height="58.043" width="70.049" xmlns="http://www.w3.org/2000/svg"><path d="m555.56259 251.71548c-1.20323 0-2.00141.70882-2.00141 2.00141v54.03811c0 1.11388.5688 2.00141 2.00141 2.00141h66.04658c1.38194.0476 2.00342-.79819 2.00142-2.00141v-54.03811c0-1.15856-.83547-2.00141-2.00142-2.00141zm2.00141 16.01129h14.00988v8.00565h-14.00988zm16.01129 0h14.00988v8.00565h-14.00988zm16.01129 0h14.00988v8.00565h-14.00988zm16.01129 0h14.00989v8.00565h-14.00989zm-48.03387 10.00706h14.00988v8.00564h-14.00988zm16.01129 0h14.00988v8.00564h-14.00988zm16.01129 0h14.00988v8.00564h-14.00988zm16.01129 0h14.00989v8.00564h-14.00989zm-48.03387 10.00705h14.00988v8.00565h-14.00988zm16.01129 0h14.00988v8.00565h-14.00988zm16.01129 0h14.00988v8.00565h-14.00988zm16.01129 0h14.00989v8.00565h-14.00989zm-48.03387 10.00706h14.00988v8.00564h-14.00988zm16.01129 0h14.00988v8.00564h-14.00988zm16.01129 0h14.00988v8.00564h-14.00988zm16.01129 0h14.00989v8.00564h-14.00989z" fill="#00bcf2" transform="translate(-553.561 -251.715)"/></svg>